<?xml version="1.0" encoding="iso-8859-1"?>
<!-- Created with Inkscape (http://www.inkscape.org/) -->

<svg
   width="210mm"
   height="297mm"
   viewBox="0 0 210 297"
   version="1.1"
   id="svg5"
  xmlns="http://www.w3.org/2000/svg" xmlns:xlink="http://www.w3.org/1999/xlink" >
 

  <defs
     id="defs2" />
  <g
     inkscape:label="Layer 1"
     inkscape:groupmode="layer"
     id="layer1">
    <path
       style="opacity:0.718033;fill:#ff5889;fill-opacity:0.27106228"
       d="m 128.05941,107.65158 c -4.76539,0.56372 -9.09345,2.90125 -13.58418,5.21467 -4.49075,2.3134 -9.14541,4.60159 -14.564483,5.04517 -4.36781,0.35752 -9.113644,0.21074 -14.733472,-2.50476 v 24.76386 h 56.247215 c -0.13352,-13.83938 5.38596,-34.50056 -13.36508,-32.51894 z"
       id="path714" />
    <path
       style="opacity:0.718033;fill:#f2f2f2"
       d="m 85.177275,83.923307 c -0.0034,15.886619 -5.489031,35.275083 14.721582,33.843413 5.385123,-0.4408 10.019103,-2.71661 14.508163,-5.02915 4.48905,-2.31255 8.83291,-4.66265 13.63482,-5.23069 1.20049,-0.142 2.42851,-0.17219 3.69487,-0.0625 2.95943,0.25628 6.17816,0.46108 9.68778,2.24328 V 83.923307 Z"
       id="rect344" />
  </g>
</svg>
